<svg width="784" height="39" viewBox="0 0 784 39" fill="none" xmlns="http://www.w3.org/2000/svg">
<path d="M7.29688 19.5L15.9969 5L24.6969 19.5L15.9969 34" stroke="white" stroke-miterlimit="10" stroke-linecap="round" stroke-linejoin="round"/>
<path d="M18.0371 16.1699L24.6971 19.4999" stroke="white" stroke-width="2" stroke-miterlimit="10" stroke-linecap="round" stroke-linejoin="round"/>
<path d="M7.29688 19.4999L13.9469 16.1699" stroke="white" stroke-width="2" stroke-miterlimit="10" stroke-linecap="round" stroke-linejoin="round"/>
<path d="M15.9969 34L7.29688 19.5L15.9969 23.85L24.6969 19.5L15.9969 34Z" stroke="white" stroke-width="2" stroke-miterlimit="10" stroke-linecap="round" stroke-linejoin="round"/>
<path d="M15.9988 23.35V9" stroke="white" stroke-width="2" stroke-miterlimit="10" stroke-linecap="round" stroke-linejoin="round"/>
<path d="M15.9969 5L7.29688 19.5L15.9969 34L24.6969 19.5L15.9969 5Z" stroke="white" stroke-width="2" stroke-miterlimit="10" stroke-linecap="round" stroke-linejoin="round"/>
<mask id="path-7-outside-1_0_503" maskUnits="userSpaceOnUse" x="36" y="11.5" width="93" height="16" fill="black">
<rect fill="white" x="36" y="11.5" width="93" height="16"/>
<path d="M37 26.2255V12.5H45.9202V14.8529H39.6166V18.1275H45.3651V20.4804H39.6166V23.8725H46.0391V26.2255H37Z"/>
<path d="M52.0859 26.2255C51.4383 26.2255 50.9097 26.0294 50.5001 25.6373C50.1036 25.232 49.9054 24.6961 49.9054 24.0294V18.5392H47.4474V16.5H49.9054V13.4804H52.403V16.5H55.0989V18.5392H52.403V23.598C52.403 23.9902 52.588 24.1863 52.9581 24.1863H54.861V26.2255H52.0859Z"/>
<path d="M57.6241 26.2255V12.5H60.1217V17.6961H60.4785C60.5842 17.4869 60.7494 17.2778 60.9741 17.0686C61.1987 16.8595 61.4961 16.6895 61.8661 16.5588C62.2493 16.415 62.7317 16.3431 63.3131 16.3431C64.0796 16.3431 64.747 16.5196 65.3152 16.8725C65.8967 17.2124 66.346 17.6895 66.6632 18.3039C66.9803 18.9052 67.1389 19.6111 67.1389 20.4216V26.2255H64.6412V20.6176C64.6412 19.8856 64.4562 19.3366 64.0862 18.9706C63.7294 18.6046 63.214 18.4216 62.5401 18.4216C61.7736 18.4216 61.1789 18.6765 60.756 19.1863C60.3331 19.683 60.1217 20.3824 60.1217 21.2843V26.2255H57.6241Z"/>
<path d="M74.5832 26.5C73.6052 26.5 72.7397 26.2974 71.9864 25.8922C71.2463 25.4739 70.6649 24.8922 70.242 24.1471C69.8323 23.3889 69.6275 22.5 69.6275 21.4804V21.2451C69.6275 20.2255 69.8323 19.3431 70.242 18.598C70.6517 17.8399 71.2265 17.2582 71.9666 16.8529C72.7066 16.4346 73.5656 16.2255 74.5435 16.2255C75.5082 16.2255 76.3474 16.4412 77.061 16.8725C77.7746 17.2908 78.3296 17.8791 78.7261 18.6373C79.1225 19.3824 79.3208 20.2516 79.3208 21.2451V22.0882H72.1648C72.1912 22.7549 72.4423 23.2974 72.9181 23.7157C73.3938 24.134 73.9753 24.3431 74.6624 24.3431C75.3628 24.3431 75.8782 24.1928 76.2086 23.8922C76.539 23.5915 76.7901 23.2582 76.9619 22.8922L79.0036 23.951C78.8186 24.2908 78.5477 24.6634 78.1909 25.0686C77.8473 25.4608 77.3847 25.8007 76.8033 26.0882C76.2218 26.3627 75.4818 26.5 74.5832 26.5ZM72.1846 20.2451H76.7835C76.7306 19.683 76.4993 19.232 76.0897 18.8922C75.6932 18.5523 75.1712 18.3824 74.5237 18.3824C73.8497 18.3824 73.3145 18.5523 72.9181 18.8922C72.5216 19.232 72.2771 19.683 72.1846 20.2451Z"/>
<path d="M81.8081 26.2255V16.5H84.2661V17.598H84.6229C84.7683 17.2059 85.0062 16.9183 85.3365 16.7353C85.6801 16.5523 86.0766 16.4608 86.5259 16.4608H87.7152V18.6569H86.4862C85.8519 18.6569 85.3299 18.8268 84.9203 19.1667C84.5106 19.4935 84.3058 20.0033 84.3058 20.6961V26.2255H81.8081Z"/>
<path d="M94.0632 26.5C93.0853 26.5 92.2197 26.2974 91.4665 25.8922C90.7264 25.4739 90.145 24.8922 89.7221 24.1471C89.3124 23.3889 89.1076 22.5 89.1076 21.4804V21.2451C89.1076 20.2255 89.3124 19.3431 89.7221 18.598C90.1317 17.8399 90.7066 17.2582 91.4466 16.8529C92.1867 16.4346 93.0457 16.2255 94.0236 16.2255C94.9883 16.2255 95.8274 16.4412 96.541 16.8725C97.2547 17.2908 97.8097 17.8791 98.2061 18.6373C98.6026 19.3824 98.8008 20.2516 98.8008 21.2451V22.0882H91.6449C91.6713 22.7549 91.9224 23.2974 92.3981 23.7157C92.8739 24.134 93.4553 24.3431 94.1425 24.3431C94.8429 24.3431 95.3583 24.1928 95.6887 23.8922C96.0191 23.5915 96.2701 23.2582 96.4419 22.8922L98.4837 23.951C98.2986 24.2908 98.0277 24.6634 97.6709 25.0686C97.3273 25.4608 96.8648 25.8007 96.2834 26.0882C95.7019 26.3627 94.9618 26.5 94.0632 26.5ZM91.6647 20.2451H96.2635C96.2107 19.683 95.9794 19.232 95.5697 18.8922C95.1733 18.5523 94.6513 18.3824 94.0038 18.3824C93.3298 18.3824 92.7946 18.5523 92.3981 18.8922C92.0017 19.232 91.7572 19.683 91.6647 20.2451Z"/>
<path d="M105.035 26.3824C104.268 26.3824 103.594 26.2124 103.013 25.8725C102.445 25.5196 102.002 25.0359 101.685 24.4216C101.367 23.8072 101.209 23.1013 101.209 22.3039V16.5H103.707V22.1078C103.707 22.8399 103.885 23.3889 104.242 23.7549C104.612 24.1209 105.134 24.3039 105.808 24.3039C106.574 24.3039 107.169 24.0556 107.592 23.5588C108.015 23.049 108.226 22.3431 108.226 21.4412V16.5H110.724V26.2255H108.266V24.951H107.909C107.75 25.2778 107.453 25.598 107.017 25.9118C106.581 26.2255 105.92 26.3824 105.035 26.3824Z"/>
<path d="M113.767 26.2255V16.5H116.225V17.5588H116.582C116.754 17.232 117.038 16.951 117.435 16.7157C117.831 16.4673 118.353 16.3431 119.001 16.3431C119.701 16.3431 120.263 16.4804 120.685 16.7549C121.108 17.0163 121.432 17.3627 121.657 17.7941H122.014C122.238 17.3758 122.555 17.0294 122.965 16.7549C123.375 16.4804 123.956 16.3431 124.709 16.3431C125.317 16.3431 125.866 16.4739 126.355 16.7353C126.857 16.9837 127.253 17.3693 127.544 17.8922C127.848 18.402 128 19.049 128 19.8333V26.2255H125.502V20.0098C125.502 19.4739 125.364 19.0752 125.086 18.8137C124.809 18.5392 124.419 18.402 123.917 18.402C123.348 18.402 122.906 18.585 122.588 18.951C122.284 19.3039 122.133 19.8137 122.133 20.4804V26.2255H119.635V20.0098C119.635 19.4739 119.496 19.0752 119.219 18.8137C118.941 18.5392 118.551 18.402 118.049 18.402C117.481 18.402 117.038 18.585 116.721 18.951C116.417 19.3039 116.265 19.8137 116.265 20.4804V26.2255H113.767Z"/>
</mask>
<path d="M37 26.2255V12.5H45.9202V14.8529H39.6166V18.1275H45.3651V20.4804H39.6166V23.8725H46.0391V26.2255H37Z" fill="white"/>
<path d="M52.0859 26.2255C51.4383 26.2255 50.9097 26.0294 50.5001 25.6373C50.1036 25.232 49.9054 24.6961 49.9054 24.0294V18.5392H47.4474V16.5H49.9054V13.4804H52.403V16.5H55.0989V18.5392H52.403V23.598C52.403 23.9902 52.588 24.1863 52.9581 24.1863H54.861V26.2255H52.0859Z" fill="white"/>
<path d="M57.6241 26.2255V12.5H60.1217V17.6961H60.4785C60.5842 17.4869 60.7494 17.2778 60.9741 17.0686C61.1987 16.8595 61.4961 16.6895 61.8661 16.5588C62.2493 16.415 62.7317 16.3431 63.3131 16.3431C64.0796 16.3431 64.747 16.5196 65.3152 16.8725C65.8967 17.2124 66.346 17.6895 66.6632 18.3039C66.9803 18.9052 67.1389 19.6111 67.1389 20.4216V26.2255H64.6412V20.6176C64.6412 19.8856 64.4562 19.3366 64.0862 18.9706C63.7294 18.6046 63.214 18.4216 62.5401 18.4216C61.7736 18.4216 61.1789 18.6765 60.756 19.1863C60.3331 19.683 60.1217 20.3824 60.1217 21.2843V26.2255H57.6241Z" fill="white"/>
<path d="M74.5832 26.5C73.6052 26.5 72.7397 26.2974 71.9864 25.8922C71.2463 25.4739 70.6649 24.8922 70.242 24.1471C69.8323 23.3889 69.6275 22.5 69.6275 21.4804V21.2451C69.6275 20.2255 69.8323 19.3431 70.242 18.598C70.6517 17.8399 71.2265 17.2582 71.9666 16.8529C72.7066 16.4346 73.5656 16.2255 74.5435 16.2255C75.5082 16.2255 76.3474 16.4412 77.061 16.8725C77.7746 17.2908 78.3296 17.8791 78.7261 18.6373C79.1225 19.3824 79.3208 20.2516 79.3208 21.2451V22.0882H72.1648C72.1912 22.7549 72.4423 23.2974 72.9181 23.7157C73.3938 24.134 73.9753 24.3431 74.6624 24.3431C75.3628 24.3431 75.8782 24.1928 76.2086 23.8922C76.539 23.5915 76.7901 23.2582 76.9619 22.8922L79.0036 23.951C78.8186 24.2908 78.5477 24.6634 78.1909 25.0686C77.8473 25.4608 77.3847 25.8007 76.8033 26.0882C76.2218 26.3627 75.4818 26.5 74.5832 26.5ZM72.1846 20.2451H76.7835C76.7306 19.683 76.4993 19.232 76.0897 18.8922C75.6932 18.5523 75.1712 18.3824 74.5237 18.3824C73.8497 18.3824 73.3145 18.5523 72.9181 18.8922C72.5216 19.232 72.2771 19.683 72.1846 20.2451Z" fill="white"/>
<path d="M81.8081 26.2255V16.5H84.2661V17.598H84.6229C84.7683 17.2059 85.0062 16.9183 85.3365 16.7353C85.6801 16.5523 86.0766 16.4608 86.5259 16.4608H87.7152V18.6569H86.4862C85.8519 18.6569 85.3299 18.8268 84.9203 19.1667C84.5106 19.4935 84.3058 20.0033 84.3058 20.6961V26.2255H81.8081Z" fill="white"/>
<path d="M94.0632 26.5C93.0853 26.5 92.2197 26.2974 91.4665 25.8922C90.7264 25.4739 90.145 24.8922 89.7221 24.1471C89.3124 23.3889 89.1076 22.5 89.1076 21.4804V21.2451C89.1076 20.2255 89.3124 19.3431 89.7221 18.598C90.1317 17.8399 90.7066 17.2582 91.4466 16.8529C92.1867 16.4346 93.0457 16.2255 94.0236 16.2255C94.9883 16.2255 95.8274 16.4412 96.541 16.8725C97.2547 17.2908 97.8097 17.8791 98.2061 18.6373C98.6026 19.3824 98.8008 20.2516 98.8008 21.2451V22.0882H91.6449C91.6713 22.7549 91.9224 23.2974 92.3981 23.7157C92.8739 24.134 93.4553 24.3431 94.1425 24.3431C94.8429 24.3431 95.3583 24.1928 95.6887 23.8922C96.0191 23.5915 96.2701 23.2582 96.4419 22.8922L98.4837 23.951C98.2986 24.2908 98.0277 24.6634 97.6709 25.0686C97.3273 25.4608 96.8648 25.8007 96.2834 26.0882C95.7019 26.3627 94.9618 26.5 94.0632 26.5ZM91.6647 20.2451H96.2635C96.2107 19.683 95.9794 19.232 95.5697 18.8922C95.1733 18.5523 94.6513 18.3824 94.0038 18.3824C93.3298 18.3824 92.7946 18.5523 92.3981 18.8922C92.0017 19.232 91.7572 19.683 91.6647 20.2451Z" fill="white"/>
<path d="M105.035 26.3824C104.268 26.3824 103.594 26.2124 103.013 25.8725C102.445 25.5196 102.002 25.0359 101.685 24.4216C101.367 23.8072 101.209 23.1013 101.209 22.3039V16.5H103.707V22.1078C103.707 22.8399 103.885 23.3889 104.242 23.7549C104.612 24.1209 105.134 24.3039 105.808 24.3039C106.574 24.3039 107.169 24.0556 107.592 23.5588C108.015 23.049 108.226 22.3431 108.226 21.4412V16.5H110.724V26.2255H108.266V24.951H107.909C107.75 25.2778 107.453 25.598 107.017 25.9118C106.581 26.2255 105.92 26.3824 105.035 26.3824Z" fill="white"/>
<path d="M113.767 26.2255V16.5H116.225V17.5588H116.582C116.754 17.232 117.038 16.951 117.435 16.7157C117.831 16.4673 118.353 16.3431 119.001 16.3431C119.701 16.3431 120.263 16.4804 120.685 16.7549C121.108 17.0163 121.432 17.3627 121.657 17.7941H122.014C122.238 17.3758 122.555 17.0294 122.965 16.7549C123.375 16.4804 123.956 16.3431 124.709 16.3431C125.317 16.3431 125.866 16.4739 126.355 16.7353C126.857 16.9837 127.253 17.3693 127.544 17.8922C127.848 18.402 128 19.049 128 19.8333V26.2255H125.502V20.0098C125.502 19.4739 125.364 19.0752 125.086 18.8137C124.809 18.5392 124.419 18.402 123.917 18.402C123.348 18.402 122.906 18.585 122.588 18.951C122.284 19.3039 122.133 19.8137 122.133 20.4804V26.2255H119.635V20.0098C119.635 19.4739 119.496 19.0752 119.219 18.8137C118.941 18.5392 118.551 18.402 118.049 18.402C117.481 18.402 117.038 18.585 116.721 18.951C116.417 19.3039 116.265 19.8137 116.265 20.4804V26.2255H113.767Z" fill="white"/>
<path d="M37 26.2255V12.5H45.9202V14.8529H39.6166V18.1275H45.3651V20.4804H39.6166V23.8725H46.0391V26.2255H37Z" stroke="white" stroke-width="0.6" mask="url(#path-7-outside-1_0_503)"/>
<path d="M52.0859 26.2255C51.4383 26.2255 50.9097 26.0294 50.5001 25.6373C50.1036 25.232 49.9054 24.6961 49.9054 24.0294V18.5392H47.4474V16.5H49.9054V13.4804H52.403V16.5H55.0989V18.5392H52.403V23.598C52.403 23.9902 52.588 24.1863 52.9581 24.1863H54.861V26.2255H52.0859Z" stroke="white" stroke-width="0.6" mask="url(#path-7-outside-1_0_503)"/>
<path d="M57.6241 26.2255V12.5H60.1217V17.6961H60.4785C60.5842 17.4869 60.7494 17.2778 60.9741 17.0686C61.1987 16.8595 61.4961 16.6895 61.8661 16.5588C62.2493 16.415 62.7317 16.3431 63.3131 16.3431C64.0796 16.3431 64.747 16.5196 65.3152 16.8725C65.8967 17.2124 66.346 17.6895 66.6632 18.3039C66.9803 18.9052 67.1389 19.6111 67.1389 20.4216V26.2255H64.6412V20.6176C64.6412 19.8856 64.4562 19.3366 64.0862 18.9706C63.7294 18.6046 63.214 18.4216 62.5401 18.4216C61.7736 18.4216 61.1789 18.6765 60.756 19.1863C60.3331 19.683 60.1217 20.3824 60.1217 21.2843V26.2255H57.6241Z" stroke="white" stroke-width="0.6" mask="url(#path-7-outside-1_0_503)"/>
<path d="M74.5832 26.5C73.6052 26.5 72.7397 26.2974 71.9864 25.8922C71.2463 25.4739 70.6649 24.8922 70.242 24.1471C69.8323 23.3889 69.6275 22.5 69.6275 21.4804V21.2451C69.6275 20.2255 69.8323 19.3431 70.242 18.598C70.6517 17.8399 71.2265 17.2582 71.9666 16.8529C72.7066 16.4346 73.5656 16.2255 74.5435 16.2255C75.5082 16.2255 76.3474 16.4412 77.061 16.8725C77.7746 17.2908 78.3296 17.8791 78.7261 18.6373C79.1225 19.3824 79.3208 20.2516 79.3208 21.2451V22.0882H72.1648C72.1912 22.7549 72.4423 23.2974 72.9181 23.7157C73.3938 24.134 73.9753 24.3431 74.6624 24.3431C75.3628 24.3431 75.8782 24.1928 76.2086 23.8922C76.539 23.5915 76.7901 23.2582 76.9619 22.8922L79.0036 23.951C78.8186 24.2908 78.5477 24.6634 78.1909 25.0686C77.8473 25.4608 77.3847 25.8007 76.8033 26.0882C76.2218 26.3627 75.4818 26.5 74.5832 26.5ZM72.1846 20.2451H76.7835C76.7306 19.683 76.4993 19.232 76.0897 18.8922C75.6932 18.5523 75.1712 18.3824 74.5237 18.3824C73.8497 18.3824 73.3145 18.5523 72.9181 18.8922C72.5216 19.232 72.2771 19.683 72.1846 20.2451Z" stroke="white" stroke-width="0.6" mask="url(#path-7-outside-1_0_503)"/>
<path d="M81.8081 26.2255V16.5H84.2661V17.598H84.6229C84.7683 17.2059 85.0062 16.9183 85.3365 16.7353C85.6801 16.5523 86.0766 16.4608 86.5259 16.4608H87.7152V18.6569H86.4862C85.8519 18.6569 85.3299 18.8268 84.9203 19.1667C84.5106 19.4935 84.3058 20.0033 84.3058 20.6961V26.2255H81.8081Z" stroke="white" stroke-width="0.6" mask="url(#path-7-outside-1_0_503)"/>
<path d="M94.0632 26.5C93.0853 26.5 92.2197 26.2974 91.4665 25.8922C90.7264 25.4739 90.145 24.8922 89.7221 24.1471C89.3124 23.3889 89.1076 22.5 89.1076 21.4804V21.2451C89.1076 20.2255 89.3124 19.3431 89.7221 18.598C90.1317 17.8399 90.7066 17.2582 91.4466 16.8529C92.1867 16.4346 93.0457 16.2255 94.0236 16.2255C94.9883 16.2255 95.8274 16.4412 96.541 16.8725C97.2547 17.2908 97.8097 17.8791 98.2061 18.6373C98.6026 19.3824 98.8008 20.2516 98.8008 21.2451V22.0882H91.6449C91.6713 22.7549 91.9224 23.2974 92.3981 23.7157C92.8739 24.134 93.4553 24.3431 94.1425 24.3431C94.8429 24.3431 95.3583 24.1928 95.6887 23.8922C96.0191 23.5915 96.2701 23.2582 96.4419 22.8922L98.4837 23.951C98.2986 24.2908 98.0277 24.6634 97.6709 25.0686C97.3273 25.4608 96.8648 25.8007 96.2834 26.0882C95.7019 26.3627 94.9618 26.5 94.0632 26.5ZM91.6647 20.2451H96.2635C96.2107 19.683 95.9794 19.232 95.5697 18.8922C95.1733 18.5523 94.6513 18.3824 94.0038 18.3824C93.3298 18.3824 92.7946 18.5523 92.3981 18.8922C92.0017 19.232 91.7572 19.683 91.6647 20.2451Z" stroke="white" stroke-width="0.6" mask="url(#path-7-outside-1_0_503)"/>
<path d="M105.035 26.3824C104.268 26.3824 103.594 26.2124 103.013 25.8725C102.445 25.5196 102.002 25.0359 101.685 24.4216C101.367 23.8072 101.209 23.1013 101.209 22.3039V16.5H103.707V22.1078C103.707 22.8399 103.885 23.3889 104.242 23.7549C104.612 24.1209 105.134 24.3039 105.808 24.3039C106.574 24.3039 107.169 24.0556 107.592 23.5588C108.015 23.049 108.226 22.3431 108.226 21.4412V16.5H110.724V26.2255H108.266V24.951H107.909C107.75 25.2778 107.453 25.598 107.017 25.9118C106.581 26.2255 105.92 26.3824 105.035 26.3824Z" stroke="white" stroke-width="0.6" mask="url(#path-7-outside-1_0_503)"/>
<path d="M113.767 26.2255V16.5H116.225V17.5588H116.582C116.754 17.232 117.038 16.951 117.435 16.7157C117.831 16.4673 118.353 16.3431 119.001 16.3431C119.701 16.3431 120.263 16.4804 120.685 16.7549C121.108 17.0163 121.432 17.3627 121.657 17.7941H122.014C122.238 17.3758 122.555 17.0294 122.965 16.7549C123.375 16.4804 123.956 16.3431 124.709 16.3431C125.317 16.3431 125.866 16.4739 126.355 16.7353C126.857 16.9837 127.253 17.3693 127.544 17.8922C127.848 18.402 128 19.049 128 19.8333V26.2255H125.502V20.0098C125.502 19.4739 125.364 19.0752 125.086 18.8137C124.809 18.5392 124.419 18.402 123.917 18.402C123.348 18.402 122.906 18.585 122.588 18.951C122.284 19.3039 122.133 19.8137 122.133 20.4804V26.2255H119.635V20.0098C119.635 19.4739 119.496 19.0752 119.219 18.8137C118.941 18.5392 118.551 18.402 118.049 18.402C117.481 18.402 117.038 18.585 116.721 18.951C116.417 19.3039 116.265 19.8137 116.265 20.4804V26.2255H113.767Z" stroke="white" stroke-width="0.6" mask="url(#path-7-outside-1_0_503)"/>
<g clip-path="url(#clip0_0_503)">
<path fill-rule="evenodd" clip-rule="evenodd" d="M160 11.1243V19.2367C160 19.3746 160.045 19.4577 160.076 19.6064C160.141 19.9238 160.3 20.2292 160.486 20.4942L160.528 20.5553C160.834 21.0146 161.37 21.2832 161.827 21.5677L166.202 24.1545C166.295 24.209 166.381 24.2502 166.485 24.313C166.594 24.3794 166.683 24.4365 166.783 24.4902L167.634 24.9972C167.698 25.0333 167.733 25.0463 167.794 25.0753C168.566 25.444 169.47 25.3942 170.214 25.0092C170.845 24.6824 172.207 23.8269 172.881 23.432L176.111 21.5338C176.665 21.2136 177.208 20.8533 177.775 20.5489L182.663 17.6604C183.75 17.0642 183.362 17.0158 183.95 17.3347L184.661 17.7448C184.79 17.8263 184.89 17.8933 185.016 17.9671L185.531 18.267C185.604 18.3084 185.664 18.3375 185.728 18.3751C185.859 18.4512 185.943 18.5184 186.083 18.5984C186.152 18.6379 186.193 18.6569 186.259 18.6939C186.33 18.7343 186.377 18.7652 186.449 18.8093L188.941 20.2909C189.037 20.3431 189.267 20.4292 189.267 20.5429V27.0742C189.267 27.2416 188.453 27.6375 188.253 27.7598L185.952 29.1262C185.715 29.2679 183.731 30.473 183.568 30.5116L181.283 29.1638C181.221 29.1289 181.172 29.0979 181.113 29.0614C180.984 28.9816 180.886 28.9283 180.75 28.8471L180.326 28.5927C179.757 28.2728 179.213 27.9032 178.64 27.5956C178.411 27.4729 178.154 27.2454 177.904 27.1772V23.5335C177.754 23.5462 177.405 23.7747 177.256 23.8702L175.19 25.098C175.067 25.1649 174.6 25.4002 174.6 25.5272V27.6928C174.6 27.8477 174.646 27.8935 174.669 28.0691C174.689 28.2241 174.726 28.3205 174.768 28.4497C174.835 28.6581 174.93 28.8699 175.057 29.0484L175.446 29.5111C175.885 29.9229 176.458 30.1882 176.97 30.5007L182.323 33.6378C182.438 33.7062 182.494 33.7419 182.638 33.7973C183.044 33.953 183.585 34.0675 184.011 33.9536L184.701 33.7286C185.094 33.5491 187.473 32.1093 188.088 31.7507C188.293 31.6311 188.476 31.5129 188.687 31.3994L191.821 29.4377C192.122 29.1319 192.409 28.6647 192.494 28.2338C192.527 28.0658 192.571 27.9996 192.571 27.8303V19.7523C192.571 19.6032 192.518 19.5415 192.489 19.3885C192.462 19.2461 192.415 19.1409 192.368 19.0311C192.321 18.9222 192.286 18.8393 192.223 18.7312C191.909 18.1852 191.541 17.9193 191.013 17.5931L187.831 15.7154C187.241 15.3499 186.297 14.8585 185.78 14.5067C185.656 14.4226 185.595 14.4098 185.476 14.3352C185.076 14.085 184.682 13.8445 184.226 13.7194C183.706 13.5772 183.054 13.6737 182.578 13.8612C182.495 13.8936 182.517 13.8868 182.46 13.9134C182.422 13.9317 182.359 13.9594 182.323 13.9792C182.255 14.0157 182.184 14.0721 182.117 14.1134C182.035 14.1644 181.966 14.1984 181.877 14.2474C181.715 14.3368 181.601 14.4165 181.428 14.5106C181.27 14.5959 181.145 14.6842 181.004 14.7665L176.326 17.525C176.233 17.5858 176.188 17.6079 176.09 17.6627L175.217 18.1823C175.135 18.2323 175.077 18.2585 174.999 18.3035L174.551 18.5688C174.456 18.6236 174.411 18.6544 174.319 18.7102L172.119 20.0079C172.031 20.0624 171.986 20.0859 171.902 20.1301C171.808 20.1791 171.762 20.2163 171.673 20.2746C171.597 20.3237 171.525 20.3614 171.458 20.3993L171.223 20.5383C171.147 20.5808 171.089 20.6188 171.011 20.6659L169.881 21.3357C169.809 21.3779 169.746 21.4078 169.662 21.4562C168.926 21.8797 169.102 21.9609 168.588 21.6533L163.682 18.7489C163.566 18.677 163.436 18.585 163.304 18.5491V11.8117C164.168 11.3456 165.003 10.8163 165.848 10.3149C165.905 10.2812 165.887 10.2891 165.931 10.2619L166.914 9.68264C167.487 9.37569 168.033 9.00088 168.603 8.68848C168.699 8.63539 168.883 8.49505 168.962 8.49957C169.094 8.50719 169.542 8.81338 169.675 8.89142C169.786 8.95617 169.896 9.03072 170.012 9.0983C170.068 9.13144 170.126 9.15864 170.188 9.19412C170.262 9.23705 170.295 9.26547 170.374 9.31338L171.078 9.72961C171.217 9.80943 171.313 9.8532 171.444 9.94149L172.144 10.3618C172.97 10.8722 173.831 11.2986 174.633 11.8461L174.631 15.2181C174.629 15.6529 174.764 15.3901 175.551 14.947L175.895 14.7483C176.47 14.3927 177.089 14.0948 177.654 13.7231C177.741 13.666 177.971 13.5676 177.971 13.4617V11.3992C177.971 11.1878 177.884 10.7756 177.82 10.5913L177.506 9.94817C177.166 9.43255 176.729 9.15892 176.216 8.85772L170.379 5.4239C169.568 4.98584 168.79 4.82648 167.917 5.23922L164.525 7.21239C163.847 7.62683 163.147 7.99882 162.475 8.42248L162.173 8.59539C162.058 8.66664 161.983 8.6977 161.869 8.76679C161.094 9.23403 160.624 9.46643 160.207 10.3729C160.156 10.4844 160.116 10.5894 160.082 10.7268C160.051 10.855 160 11.0115 160 11.1242V11.1243Z" fill="white"/>
<path fill-rule="evenodd" clip-rule="evenodd" d="M244.191 19.2369V19.9587C244.191 20.2207 244.254 20.3416 244.259 20.5771C244.265 20.8636 244.3 20.9577 244.34 21.216C244.361 21.3482 244.37 21.3894 244.402 21.4971C244.43 21.5915 244.442 21.6753 244.468 21.7738C244.514 21.9496 244.573 22.1348 244.639 22.3212C244.774 22.7037 245.143 23.3834 245.376 23.701C245.439 23.7873 245.463 23.8075 245.53 23.888C245.845 24.2709 245.867 24.2798 246.227 24.5862L246.263 24.6182C246.618 24.9269 247.234 25.2317 247.69 25.3984C247.952 25.4945 248.38 25.5823 248.666 25.6403L249.653 25.7336C249.834 25.7336 249.966 25.71 250.144 25.684C250.35 25.6541 250.461 25.6637 250.652 25.6173C250.826 25.575 250.924 25.5627 251.086 25.5096C252.449 25.0621 252.402 24.7151 252.823 24.4274C252.823 25.2114 252.911 26.2377 252.615 26.828C252.499 27.06 252.221 27.363 251.992 27.4986C251.66 27.6945 251.407 27.6931 250.901 27.6931H246.417C246.117 27.6931 245.844 27.6322 245.844 27.7961V30.3054H252.081C252.493 30.3054 253.392 30.0744 253.751 29.9111C253.991 29.8022 254.293 29.6459 254.49 29.4955L255.24 28.7826L255.649 28.1336C255.984 27.4172 256.094 26.6969 256.094 25.9054V13.8055C256.094 13.725 256.038 13.668 255.959 13.668H252.924C252.733 13.668 252.789 13.9601 252.789 14.1491C252.79 14.3554 252.789 14.5617 252.789 14.7679L252.528 14.5183C252.423 14.417 252.369 14.3719 252.258 14.2785C252.155 14.1916 252.07 14.1414 251.951 14.0755C251.023 13.5609 250.421 13.4961 249.35 13.4961C248.382 13.4961 247.065 13.9084 246.323 14.5353L246.04 14.7618C245.114 15.5928 244.562 16.7798 244.341 18.0137L244.191 19.2367L244.191 19.2369ZM249.671 16.3336C250.207 16.3336 250.867 16.483 251.295 16.7654C252.098 17.2954 252.631 18.3879 252.631 19.6012C252.631 21.4058 251.306 22.8688 249.671 22.8688C248.037 22.8688 246.712 21.4058 246.712 19.6012C246.712 18.5023 247.203 17.4277 247.957 16.8354C248.441 16.455 249.032 16.3336 249.671 16.3336Z" fill="white"/>
<path fill-rule="evenodd" clip-rule="evenodd" d="M203.901 14.8713L203.904 13.9059C203.905 13.7777 203.93 13.6682 203.8 13.6682H200.765C200.688 13.6682 200.664 13.6921 200.664 13.7712V30.2024C200.664 30.2816 200.688 30.3055 200.765 30.3055H203.8C203.93 30.3055 203.905 30.1959 203.904 30.0678L203.901 24.5649C204.055 24.607 204.242 24.9489 204.804 25.2251C204.866 25.2556 204.913 25.2839 204.983 25.3178C205.485 25.5603 206.397 25.7336 206.935 25.7336C207.403 25.7336 208.24 25.5944 208.723 25.4591C209.22 25.3197 209.95 24.9469 210.336 24.629C210.405 24.5724 210.48 24.5239 210.548 24.4671L210.883 24.1551C210.888 24.1499 210.894 24.1422 210.899 24.1369C210.903 24.1315 210.91 24.1237 210.914 24.1183C211.435 23.5012 211.666 23.2624 212.012 22.4189C212.088 22.2348 212.135 22.1052 212.195 21.918C212.523 20.907 212.532 20.2134 212.532 19.1336C212.532 18.669 212.366 17.7583 212.221 17.2859C212.208 17.2435 212.199 17.2012 212.184 17.1517C211.953 16.4095 211.792 16.1854 211.422 15.5909L210.99 15.0348C210.818 14.8358 210.707 14.7726 210.525 14.6148C210.223 14.3526 209.71 14.0348 209.32 13.884L208.68 13.6773C208.529 13.6463 208.534 13.6263 208.414 13.6045C208.29 13.5819 208.244 13.5797 208.125 13.5557C207.353 13.4013 206.342 13.4928 205.57 13.7542C205.056 13.9283 204.738 14.1392 204.344 14.4636C204.278 14.5176 204.263 14.5203 204.195 14.587C203.965 14.8117 204.044 14.8325 203.901 14.8714V14.8713ZM207.259 16.3336C207.794 16.3336 208.454 16.483 208.882 16.7654C209.685 17.2954 210.218 18.388 210.218 19.6012C210.218 21.4058 208.893 22.8688 207.259 22.8688C205.624 22.8688 204.299 21.4058 204.299 19.6012C204.299 18.5023 204.791 17.4278 205.544 16.8354C206.028 16.4551 206.619 16.3336 207.259 16.3336Z" fill="white"/>
<path fill-rule="evenodd" clip-rule="evenodd" d="M257.98 19.1336C257.98 20.2544 257.972 20.8202 258.356 21.8785C258.559 22.4369 258.91 23.0793 259.277 23.5183C259.346 23.6015 259.386 23.6363 259.45 23.7202C259.909 24.3216 260.879 24.9508 261.598 25.2429C261.691 25.2809 261.744 25.2988 261.843 25.3365C261.95 25.3774 262.03 25.3916 262.128 25.4242C262.442 25.5289 263.032 25.6562 263.376 25.6642C264.114 25.6814 263.566 25.7958 264.729 25.67C264.854 25.6565 264.958 25.675 265.082 25.6516C265.203 25.6286 265.248 25.6085 265.388 25.5859C265.477 25.5716 265.609 25.5572 265.702 25.5282C265.96 25.4478 266.255 25.3832 266.55 25.2579L267.061 25.0227C267.828 24.5919 268.589 24.0178 269.093 23.2784C269.628 22.4926 270.051 21.5041 270.156 20.5465C270.235 19.8157 270.238 18.7775 270.056 18.0975C270.028 17.991 270.01 17.9087 269.98 17.7968C269.947 17.6735 269.969 17.7725 269.936 17.6697C269.918 17.6142 269.91 17.5616 269.894 17.5061C269.738 16.944 269.323 16.2579 268.982 15.7895C268.912 15.6939 268.885 15.6688 268.814 15.5826C268.501 15.2029 268.212 14.9376 267.812 14.6452C267.806 14.641 267.798 14.6348 267.792 14.6305C267.787 14.6263 267.779 14.6201 267.773 14.6158L267.734 14.587C267.689 14.5561 267.659 14.5395 267.61 14.5068C267.321 14.3143 266.942 14.096 266.616 13.9738C266.509 13.9339 266.467 13.9057 266.35 13.8671L265.153 13.5743C264.647 13.473 263.638 13.4542 263.124 13.5496L261.976 13.823C261.856 13.8621 261.827 13.8705 261.728 13.9132C261.632 13.9539 261.561 13.9756 261.462 14.0209C261.293 14.0991 261.135 14.1678 260.983 14.2542C260.828 14.3423 260.689 14.4153 260.536 14.5201C260.388 14.6218 260.274 14.7174 260.129 14.8269L259.648 15.2645C259.643 15.2694 259.635 15.2762 259.63 15.2812C259.606 15.3045 259.613 15.296 259.579 15.3322L259.176 15.8149C259.132 15.868 259.126 15.8744 259.087 15.9302C258.719 16.4465 258.333 17.2405 258.175 17.8882C258.155 17.9699 258.142 18.0807 258.115 18.171C258.086 18.2699 258.075 18.397 258.057 18.4898C258.016 18.7091 257.981 18.8826 257.981 19.1338L257.98 19.1336ZM264.094 16.3335C264.629 16.3335 265.289 16.4829 265.717 16.7653C266.521 17.2953 267.053 18.3878 267.053 19.6011C267.053 21.4057 265.728 22.8687 264.094 22.8687C262.46 22.8687 261.135 21.4057 261.135 19.6011C261.135 18.5022 261.626 17.4277 262.379 16.8353C262.863 16.455 263.455 16.3335 264.094 16.3335Z" fill="white"/>
<path fill-rule="evenodd" clip-rule="evenodd" d="M213.645 19.2367C213.645 20.4549 213.689 20.9888 214.108 22.0985C214.145 22.1954 214.18 22.2692 214.225 22.3574C214.311 22.5266 214.37 22.6665 214.467 22.8319L215.471 24.0774C215.54 24.1384 215.575 24.1837 215.642 24.247L217.005 25.1264C217.535 25.4008 218.477 25.6365 219.073 25.6649C219.294 25.6755 219.504 25.7333 219.747 25.7333C220.076 25.7333 220.762 25.6388 221.116 25.5813C221.264 25.5571 221.295 25.5463 221.417 25.5102C221.891 25.3695 222.088 25.3278 222.545 25.1138L223.028 24.8501C223.526 24.5534 224.118 24.0787 224.492 23.6263C225.207 22.7595 225.765 21.4908 225.848 20.369C225.915 19.4668 225.887 18.5154 225.605 17.6644C225.57 17.5591 225.547 17.4709 225.514 17.3795L225.409 17.108C225.171 16.5141 224.893 16.0687 224.498 15.596C224.215 15.2564 223.813 14.8629 223.463 14.6231C223.306 14.515 223.165 14.4437 223.004 14.3349C222.739 14.155 222.43 14.0435 222.136 13.9142C221.649 13.7004 220.626 13.4961 220.118 13.4961C219.258 13.4961 218.472 13.5172 217.642 13.8248L217.392 13.9133C217.384 13.9163 217.375 13.9201 217.368 13.9231C217.36 13.9262 217.351 13.9296 217.343 13.9326C217.313 13.9442 217.299 13.9476 217.268 13.9593C216.544 14.2352 215.969 14.6624 215.403 15.1858C214.869 15.6794 214.374 16.447 214.104 17.1271L213.77 18.2306L213.645 19.2367H213.645ZM219.803 16.3334C220.338 16.3334 220.998 16.4828 221.426 16.7652C222.229 17.2952 222.762 18.3877 222.762 19.601C222.762 21.4056 221.437 22.8686 219.803 22.8686C218.169 22.8686 216.844 21.4056 216.844 19.601C216.844 18.5021 217.335 17.4276 218.088 16.8352C218.572 16.4549 219.164 16.3334 219.803 16.3334Z" fill="white"/>
<path fill-rule="evenodd" clip-rule="evenodd" d="M275.177 15.2156C275.177 14.8153 275.172 14.4119 275.177 14.0119C275.183 13.5908 275.315 13.6689 274.334 13.6689C273.536 13.6689 272.738 13.6689 271.94 13.6689C271.922 13.7459 271.906 13.7479 271.906 13.8407V25.3563C271.906 25.4491 271.922 25.4511 271.94 25.5282L275.076 25.5287C275.23 25.4961 275.179 25.3476 275.177 25.1504C275.173 24.7471 275.149 19.0742 275.195 18.741C275.27 18.2113 275.356 17.8573 275.668 17.4013C276.538 16.1325 278.621 16.0853 279.406 17.5038C279.823 18.2559 279.729 18.8801 279.729 19.9938V24.9439C279.728 25.1455 279.66 25.5282 279.863 25.5282H282.898C282.976 25.5282 282.999 25.5043 282.999 25.4251V17.6564L282.851 16.776C282.785 16.4724 282.703 16.2478 282.596 16.0051C282.471 15.7231 282.271 15.3297 282.074 15.0937C281.672 14.6139 281.814 14.7618 281.366 14.3719C280.78 13.8635 279.684 13.4971 278.953 13.4971C278.106 13.4971 277.679 13.5107 276.906 13.8165C276.373 14.0277 276.006 14.2763 275.601 14.6862C275.553 14.7346 275.499 14.7964 275.456 14.848C275.372 14.9502 275.257 15.1554 275.177 15.2157L275.177 15.2156Z" fill="white"/>
<path fill-rule="evenodd" clip-rule="evenodd" d="M235.055 30.3052H237.954C238.102 30.3052 238.156 29.9672 238.195 29.8635C238.489 29.0897 238.707 28.2877 238.989 27.5105L239.062 27.3101C239.093 27.2301 239.062 27.3235 239.091 27.2364L242.433 17.7874C242.498 17.6094 242.552 17.4666 242.616 17.2861L243.358 15.19C243.383 15.1208 243.42 15.0442 243.456 14.9457L243.834 13.883C243.87 13.7912 243.94 13.668 243.787 13.668H240.652C240.513 13.668 240.335 14.3951 240.293 14.5393C240.194 14.8748 240.085 15.1877 239.982 15.4946L239.681 16.4595C239.584 16.7925 239.487 17.0944 239.38 17.4241L238.157 21.2304C238.152 21.0144 237.362 18.7225 237.258 18.3653L236.766 16.8393C236.749 16.7887 236.746 16.76 236.729 16.7049C236.703 16.6203 236.725 16.6983 236.692 16.605L235.815 13.8558C235.782 13.7516 235.78 13.6681 235.662 13.6681H232.56C232.426 13.6681 232.462 13.7654 232.498 13.8628C232.501 13.8713 232.505 13.8799 232.508 13.8883C232.511 13.8966 232.516 13.9051 232.519 13.9133C232.548 13.9847 232.52 13.9089 232.55 13.9874L234.231 18.667C234.239 18.6937 234.246 18.7191 234.255 18.7455C234.285 18.8314 234.256 18.7447 234.284 18.8191L235.132 21.1859C235.135 21.1938 235.138 21.2029 235.141 21.2108C235.148 21.2293 235.164 21.2662 235.171 21.284L236.531 25.0874C236.677 25.549 236.651 25.4353 236.384 26.1611L235.561 28.5188C235.526 28.6157 235.508 28.6634 235.474 28.7732L235.01 30.0921C234.98 30.177 234.891 30.3053 235.055 30.3053L235.055 30.3052Z" fill="white"/>
<path fill-rule="evenodd" clip-rule="evenodd" d="M227.77 8.65004V25.4249C227.77 25.5042 227.793 25.528 227.871 25.528H230.905C230.983 25.528 231.006 25.5041 231.006 25.4249V8.65004C231.006 8.57078 230.983 8.54688 230.905 8.54688H227.871C227.793 8.54688 227.77 8.57078 227.77 8.65004Z" fill="white"/>
</g>
<path fill-rule="evenodd" clip-rule="evenodd" d="M325.976 29.5C331.499 29.5 335.976 25.0228 335.976 19.5C335.976 13.9772 331.499 9.5 325.976 9.5C320.847 9.5 316.62 13.3617 316.043 18.3363H327.14V20.1967H316C316.358 25.3945 320.687 29.5 325.976 29.5Z" fill="white"/>
<path d="M358.387 22.6304C358.387 25.6604 356.644 27.1754 353.159 27.1754H345.976V24.3C346.309 24.1763 346.522 23.9754 346.613 23.6971C346.673 23.5271 346.703 23.2179 346.703 22.7696V16.2768C346.703 15.7512 346.673 15.3879 346.613 15.187C346.506 14.8314 346.294 14.6227 345.976 14.5609V11.5H351.886C353.977 11.5 355.424 11.6778 356.227 12.0333C357.485 12.5899 358.114 13.7106 358.114 15.3957C358.114 17.529 357.265 18.7348 355.568 19.013C356.508 19.1213 357.212 19.5077 357.682 20.1725C358.152 20.8217 358.387 21.6411 358.387 22.6304ZM353.295 16.6014C353.295 15.9213 353.136 15.4575 352.818 15.2101C352.515 14.9628 352.022 14.8391 351.34 14.8391V17.6681C352.007 17.6681 352.439 17.6372 352.636 17.5754C353.075 17.4362 353.295 17.1116 353.295 16.6014ZM353.295 22.4449C353.295 21.9039 353.121 21.4633 352.772 21.1232C352.439 20.7676 352.007 20.5899 351.477 20.5899H351.34V23.8826C352.037 23.8826 352.507 23.8208 352.75 23.6971C353.113 23.4961 353.295 23.0787 353.295 22.4449Z" fill="white"/>
<path d="M371.464 27.1754H366.827V26.3406C366.584 26.5106 366.205 26.7502 365.69 27.0594C365.19 27.3531 364.569 27.5 363.826 27.5C362.781 27.5 361.962 27.1908 361.371 26.5725C360.796 25.9541 360.508 25.1039 360.508 24.0217C360.508 23.1715 360.796 22.4449 361.371 21.842C361.887 21.2855 362.568 20.9145 363.417 20.729L366.554 19.7087V19.1522C366.554 18.472 366.357 18.1319 365.963 18.1319C365.326 18.1319 365.008 18.6575 365.008 19.7087H361.053V16.8333C362.311 15.8749 364.054 15.3957 366.281 15.3957C367.508 15.3957 368.547 15.6507 369.395 16.1609C370.41 16.7947 370.918 17.699 370.918 18.8739V23.4652C370.918 23.7744 370.971 24.014 371.077 24.1841C371.244 24.3696 371.373 24.5164 371.464 24.6246V27.1754ZM366.554 23.7435V22.4449C366.16 22.5377 365.88 22.6227 365.713 22.7C365.152 22.9473 364.872 23.2488 364.872 23.6043C364.872 24.099 365.054 24.3464 365.417 24.3464C365.584 24.3464 365.789 24.2845 366.031 24.1609C366.289 24.0217 366.463 23.8826 366.554 23.7435Z" fill="white"/>
<path d="M383.131 23.8362C383.131 25.1039 382.586 26.0623 381.495 26.7116C380.616 27.2372 379.51 27.5 378.176 27.5C377.313 27.5 376.411 27.3609 375.471 27.0826C374.32 26.7425 373.57 26.2942 373.221 25.7377L373.176 22.8623H377.313V23.6043C377.313 24.2845 377.6 24.6246 378.176 24.6246C378.722 24.6246 378.995 24.3618 378.995 23.8362C378.995 23.2179 378.191 22.7077 376.585 22.3058L374.767 21.842C374.191 21.6256 373.736 21.2623 373.403 20.7522C373.07 20.2266 372.903 19.6469 372.903 19.013C372.903 16.6014 374.509 15.3957 377.722 15.3957C380.222 15.3957 381.919 15.9058 382.813 16.9261V19.6159H378.858V19.013C378.858 18.3638 378.555 18.0391 377.949 18.0391C377.434 18.0391 377.176 18.271 377.176 18.7348C377.176 19.4459 377.797 19.8942 379.04 20.0797C379.995 20.2188 380.858 20.5667 381.631 21.1232C382.631 21.8498 383.131 22.7541 383.131 23.8362Z" fill="white"/>
<path d="M394.976 25.8768C394.491 26.3715 393.658 26.7734 392.476 27.0826C391.46 27.3609 390.536 27.5 389.703 27.5C386.551 27.5 384.975 26.2014 384.975 23.6043V19.2913C384.975 17.73 385.46 16.6556 386.43 16.0681C387.172 15.6198 388.369 15.3957 390.021 15.3957C393.324 15.3957 394.976 16.5087 394.976 18.7348V22.3058H389.203V23.4652C389.203 24.2382 389.43 24.6246 389.885 24.6246C390.066 24.6246 390.233 24.5473 390.385 24.3928C390.536 24.2382 390.612 24.0681 390.612 23.8826V22.9087H394.976V25.8768ZM390.885 19.7087C390.885 18.6575 390.597 18.1319 390.021 18.1319C389.475 18.1319 389.203 18.6575 389.203 19.7087H390.885Z" fill="white"/>
<g clip-path="url(#clip1_0_503)">
<path fill-rule="evenodd" clip-rule="evenodd" d="M444.559 8.11806C443.557 8.37353 435.643 11.7854 434.579 12.2449C429.864 14.2815 430.891 13.7661 430.891 20.9017C430.891 22.4285 430.506 24.9008 431.423 26.1166C432.006 26.8887 434.924 27.9529 436.124 28.4314L443.474 31.55C446.196 32.7298 448.148 31.3841 451.618 29.8835C453.318 29.1483 454.885 28.5243 456.61 27.7775C461.328 25.7345 460.3 26.2445 460.3 19.1209C460.3 17.599 460.687 15.1196 459.766 13.9071C459.159 13.109 456.296 12.0852 455.065 11.5925L447.713 8.47417C446.859 8.11165 445.683 7.83169 444.559 8.11806ZM433.194 22.6264C434.816 21.2055 438.42 16.1759 439.928 15.4677C441.253 14.8455 442.861 14.7155 444.665 14.929C443.074 16.6478 441.594 18.6469 439.995 20.4484C439.171 21.3774 438.417 22.3424 437.632 23.2433C436.9 24.0824 435.776 25.2807 435.261 26.0939C435.615 26.3517 436.021 26.4727 436.528 26.6258C437.35 25.766 438.147 24.6972 438.934 23.767L446.306 14.9121L450.944 14.9238C450.476 15.9911 441.451 26.2054 440.176 28.1612L440.731 28.5025C440.974 28.6209 441.127 28.6622 441.335 28.7456C446.493 30.8069 444.533 30.9155 448.801 29.2037C449.349 28.9842 449.669 28.861 450.026 28.4983C449.664 28.277 445.987 24.027 445.643 23.504L447.72 20.8706C447.851 20.7039 447.871 20.6456 448.068 20.443C448.319 20.1836 448.291 20.2215 448.521 20.0651L452.817 25.1377C453.246 25.614 453.767 26.3661 454.314 26.8007C454.933 26.6153 455.111 26.578 455.653 26.2433C455.07 25.3024 454.254 24.596 453.488 23.7057C452.762 22.8605 451.943 21.9783 451.213 21.1185C448.945 18.4452 448.925 19.4259 450.596 17.3586C450.924 16.9528 451.332 16.3805 451.692 16.0123C452.49 16.5479 457.31 22.5602 458.025 23.0704C458.271 21.5461 458.075 19.1023 458.075 17.4769C458.075 14.4437 458.684 14.9517 455.569 13.6812C454.205 13.125 446.44 9.70957 445.777 9.6237C445.095 9.53531 437.112 13.049 435.987 13.5343C432.877 14.8764 433.115 14.0435 433.115 17.0661C433.115 18.3623 432.901 21.5583 433.194 22.6261V22.6264Z" fill="#FEFEFE"/>
<path fill-rule="evenodd" clip-rule="evenodd" d="M509.05 14.3647V25.3428C509.05 25.972 509.23 26.0585 509.838 26.0585H519.949C522.879 26.0585 523.095 24.5103 523.095 22.1094C523.095 20.404 522.109 19.9964 521.901 19.6855C522.985 18.9998 523.002 18.0476 523.002 16.771C523.002 14.4329 521.785 13.668 519.499 13.668H509.838C509.221 13.668 509.05 13.7564 509.05 14.3647ZM511.81 23.4334C513.849 23.5026 516.907 23.4432 519.055 23.4429C520.344 23.4426 520.303 22.762 520.303 21.8089C520.303 20.7345 519.749 20.5877 518.751 20.5877C516.725 20.5877 513.619 20.5274 511.721 20.5985C511.836 21.3097 511.61 22.8339 511.81 23.4334H511.81ZM511.746 18.7438C513.596 18.7438 517.432 18.823 519.128 18.7419C520.035 18.6986 520.306 18.3422 520.306 17.4488C520.306 15.708 519.268 16.0957 516.728 16.0957C515.119 16.0957 513.38 16.0329 511.787 16.1052L511.747 18.7441L511.746 18.7438Z" fill="white"/>
<path fill-rule="evenodd" clip-rule="evenodd" d="M491.301 14.4405V25.5688C491.301 26.265 491.822 26.0598 493.436 26.0598C493.961 26.0598 494.004 25.9941 494.005 25.4969C494.005 24.6959 493.945 22.6802 494.028 22.1303L499.618 22.1312L502.568 26.0307C503.268 26.0951 504.686 26.0926 505.383 26.0121C505.487 25.6958 505.399 25.5963 505.23 25.3829C505.077 25.1903 504.965 25.0574 504.826 24.886L502.439 21.8925C502.892 21.5235 504.971 21.6741 504.971 18.3507C504.971 15.6705 504.802 13.6689 501.075 13.6689H492.083C491.452 13.6689 491.3 13.8126 491.3 14.4408L491.301 14.4405ZM494.093 16.1989C493.891 16.5323 493.999 19.4162 493.999 20.0037H500.551C502.414 20.0037 502.273 19.0494 502.273 17.6739C502.273 16.6264 501.755 16.1901 500.701 16.1901C499.1 16.1901 495.462 16.1282 494.093 16.1989H494.093Z" fill="white"/>
<path fill-rule="evenodd" clip-rule="evenodd" d="M551.871 14.2896V25.493C551.871 26.2498 552.028 26.0591 554.025 26.0591C554.75 26.0591 554.569 25.6803 554.569 24.3651C554.569 23.6661 554.527 22.8251 554.583 22.1438C555.644 22.075 558.751 22.129 560.018 22.1296C560.269 22.1296 560.324 22.32 560.488 22.5372L562.919 25.7355C563.14 26.0345 563.109 26.0585 563.536 26.0585C566.832 26.0585 566.714 26.5592 563.837 22.9368C563.583 22.6177 563.187 22.1684 563.009 21.8193C565.535 21.3101 565.54 19.5535 565.54 17.3724C565.54 14.7382 564.286 13.668 561.664 13.668H552.677C552.16 13.668 551.871 13.7387 551.871 14.2896ZM554.569 19.9841C555.782 20.0678 559.658 20.0034 561.14 20.0031C563.033 20.0024 562.842 18.8868 562.842 17.5981C562.842 16.6649 562.299 16.1894 561.364 16.1894H554.924C554.385 16.1894 554.569 16.5203 554.569 17.8989C554.569 18.5941 554.569 19.2893 554.569 19.9844V19.9841Z" fill="white"/>
<path fill-rule="evenodd" clip-rule="evenodd" d="M606.976 25.6212V15.3597C606.646 14.5664 607.095 13.9129 605.978 13.7206C605.45 13.6297 603.935 13.631 603.381 13.6837C601.702 13.8434 601.674 14.7624 600.934 16.4947L598.155 22.9532C597.824 23.7327 597.429 24.0098 597.037 23.0665C596.935 22.8231 596.844 22.6126 596.744 22.3818L593.497 14.889C593.184 14.3852 593.107 13.7421 591.776 13.6733C591.179 13.6423 590.424 13.6518 589.823 13.6733C587.945 13.7399 588.307 14.7277 588.307 18.0492V23.9142C588.307 25.9934 587.942 25.9646 589.6 25.9643C590.024 25.9643 590.75 26.1386 590.891 25.6739C590.918 25.5852 590.915 25.5154 590.918 25.4204C590.967 23.5205 590.779 16.9183 590.959 16.1891C591.452 16.1907 591.351 16.2055 591.831 17.3107C592.536 18.9309 594.654 23.8387 595.393 24.9408C595.597 25.2452 595.567 25.326 595.886 25.498C596.611 25.8886 596.688 25.851 597.614 25.851C598.315 25.851 598.791 25.9198 599.298 25.5318C600.329 24.7435 600.978 22.7278 601.498 21.5686L603.733 16.5992C603.86 16.31 603.888 16.0843 604.275 16.2443C604.412 16.3794 604.335 23.3845 604.334 24.6659C604.333 26.1351 604.226 25.9605 605.777 25.9643C606.462 25.9659 606.684 26.1121 606.975 25.6209L606.976 25.6212Z" fill="white"/>
<path fill-rule="evenodd" clip-rule="evenodd" d="M472.06 25.9027C472.448 26.0192 474.413 25.9949 474.864 25.9267C475.249 25.4955 476.033 23.6275 476.362 23.464H484.451C484.691 24.029 485.161 24.7971 485.468 25.3746C485.904 26.1938 486.127 25.951 487.898 25.9671C488.994 25.9769 488.702 25.8626 487.932 24.4035L484.752 18.6483C484.032 17.4 483.357 16.0195 482.602 14.7946C482.198 14.1398 481.828 13.7222 480.784 13.6754C479.758 13.6293 478.872 13.6464 478.3 14.2061C477.942 14.5562 476.485 17.3344 476.127 18.0396C475.123 20.0121 473.958 21.9268 472.956 23.8797C472.707 24.364 471.987 25.3799 472.059 25.9027H472.06ZM477.337 21.4274L483.27 21.4321C482.863 20.5583 482.335 19.6118 481.865 18.7626C481.607 18.2954 481.404 17.89 481.155 17.4477C480.28 15.8973 480.372 15.6324 479.494 17.3574L477.337 21.4277V21.4274Z" fill="white"/>
<path fill-rule="evenodd" clip-rule="evenodd" d="M569.136 14.2148V21.3581C569.136 24.8838 570.855 25.9647 574.249 25.9647H579.042C582.259 25.9647 584.136 24.9854 584.136 21.5838C584.136 20.1868 584.202 14.6994 584.088 13.7387C583.232 13.6077 582.356 13.632 581.496 13.7305C581.281 14.7878 581.437 18.2286 581.437 19.5535C581.437 24.098 581.739 23.4436 573.949 23.4436C571.57 23.4436 572.022 21.2911 572.022 19.253L572.023 14.6662C572.03 13.5117 572.29 13.6689 569.755 13.6689C569.298 13.6689 569.136 13.7406 569.136 14.2154V14.2148Z" fill="white"/>
<path fill-rule="evenodd" clip-rule="evenodd" d="M533.84 14.1393C533.84 16.6472 533.376 16.1894 536.501 16.1894C537.577 16.1894 538.653 16.1894 539.729 16.1894C539.812 16.7473 539.762 23.9786 539.754 25.2724C539.749 26.1428 539.867 25.9644 541.818 25.9644C542.64 25.9644 542.456 25.7866 542.456 24.0645C542.456 22.9473 542.4 16.752 542.484 16.1894H547.211C548.512 16.192 548.373 16.5067 548.373 14.2144C548.373 13.6904 548.227 13.668 547.735 13.668H534.404C533.996 13.668 533.841 13.7339 533.841 14.1393H533.84Z" fill="white"/>
<path fill-rule="evenodd" clip-rule="evenodd" d="M527.269 14.1396V25.4934C527.269 26.1699 528.097 25.9647 529.386 25.9647C529.942 25.9647 529.967 25.8741 529.967 25.3431V14.2899C529.967 13.4852 529.804 13.6683 527.888 13.6683C527.48 13.6683 527.269 13.7049 527.269 14.1396Z" fill="white"/>
</g>
<g clip-path="url(#clip2_0_503)">
<path fill-rule="evenodd" clip-rule="evenodd" d="M644.64 14.4219C644.64 18.8811 643.971 17.6165 647.5 19.7316L650.537 21.4703V28.2234C650.601 28.537 653.535 30.218 653.806 30.3613L657.134 28.3125V21.4412C657.605 21.2938 662.6 18.2825 662.796 17.9609V14.3042C662.731 13.9695 660.992 13.0573 660.623 12.8408C659.257 12.0378 659.681 11.9646 658.286 12.8129C657.582 13.2407 654.109 15.4917 653.696 15.4671C653.425 15.4506 649.62 13.0842 649.122 12.7814C647.762 11.9561 648.292 11.9641 645.625 13.5834C645.284 13.7907 644.641 14.0072 644.641 14.4224L644.64 14.4219Z" fill="white"/>
<path fill-rule="evenodd" clip-rule="evenodd" d="M675.054 18.9636H681.812C682.989 18.9636 685.142 18.0617 685.542 16.4081C686.026 14.409 685.291 13.3517 683.73 12.495L683.403 12.2979C686.191 9.85553 684.754 6.66661 681.451 6.2108C680.692 6.10628 675.393 6.08286 674.762 6.22223L674.762 17.7259C674.758 18.2359 674.593 18.9636 675.055 18.9636H675.054ZM677.39 16.5447H681.126C682.402 16.5447 682.76 16.0335 682.76 15.1293C682.76 13.2684 679.296 13.7139 677.39 13.7139V16.5452V16.5447ZM677.449 11.5308H679.608C680.279 11.5308 681.724 11.2732 682.047 10.6283C682.548 9.62934 681.669 8.75885 680.775 8.75885H677.448L677.449 11.5302V11.5308Z" fill="white"/>
<path fill-rule="evenodd" clip-rule="evenodd" d="M727.126 18.6681L727.167 19.0834L729.869 19.0811L729.93 10.9709C730.052 11.0754 729.996 11.0228 730.117 11.1559L731.539 13.0254C732.055 13.7388 732.566 14.374 733.111 15.0954C736.486 19.562 735.458 19.0811 738.216 19.0811C738.718 19.0811 738.508 17.1579 738.508 16.1903V6.22205C737.78 6.09696 736.458 6.1278 735.703 6.20605L735.705 13.9787C735.268 13.6566 735.231 13.5012 734.9 13.0557L732.631 10.0398C732.223 9.48979 729.944 6.24775 729.576 6.16379H727.125V18.6681H727.126Z" fill="white"/>
<path fill-rule="evenodd" clip-rule="evenodd" d="M696.537 19.0817C699.567 19.0817 698.931 19.802 698.931 15.365C698.931 13.9399 698.931 12.5142 698.931 11.0891C699.697 11.4964 704.846 19.0817 705.41 19.0817C708.118 19.0817 707.571 19.6563 707.571 16.191V6.22266C706.742 6.08043 705.685 6.15983 704.827 6.1644V14.0976L701.81 10.1581C701.276 9.44813 700.84 8.84153 700.307 8.13612C698.446 5.67204 699.374 6.16154 696.244 6.1781V17.7257C696.242 18.2466 696.068 19.0823 696.537 19.0823V19.0817Z" fill="white"/>
<path fill-rule="evenodd" clip-rule="evenodd" d="M710.691 19.0825H713.435L714.539 16.4522C714.691 16.202 714.615 16.2563 714.865 16.1334H719.886C720.492 16.5161 720.863 18.4599 721.315 19.0825H724.06C724.048 18.6398 721.755 13.4357 721.389 12.5533L718.952 6.75404C718.569 5.81044 718.786 6.04634 716.062 6.05434C715.441 7.67593 710.686 18.5358 710.691 19.0825ZM715.689 13.6762L719.039 13.7116C718.922 13.3569 717.66 9.98751 717.317 9.55627L715.689 13.6756V13.6762Z" fill="white"/>
<path fill-rule="evenodd" clip-rule="evenodd" d="M757.246 18.6688L757.287 19.0841L766.877 19.0818C767.017 18.2604 766.94 17.3797 766.936 16.5452H759.931V13.832L766.063 13.7898C766.061 13.3208 766.058 12.8667 766.062 12.4138C766.079 10.8579 766.776 11.2954 759.931 11.2954V8.70167H766.761C766.9 7.8803 766.824 6.99954 766.819 6.16504H757.246V18.6694V18.6688Z" fill="white"/>
<path fill-rule="evenodd" clip-rule="evenodd" d="M754.037 16.9585C753.718 16.6975 752.542 15.5094 752.284 15.1878C751.181 15.9738 749.959 17.2247 747.736 16.4821C744.257 15.3198 744.316 10.0374 747.446 8.76656C748.299 8.42043 749.377 8.38444 750.192 8.6906C751.028 9.00418 751.5 9.71758 752.109 9.92435C752.519 9.50339 753.535 8.24736 753.744 7.78641C752.72 7.11013 751.982 6.36759 750.352 6.05687C746.159 5.25778 741.99 7.98461 742.124 13.0013C742.252 17.805 747.202 20.188 750.884 19.0844C752.634 18.5595 753.111 17.8512 754.036 16.9585H754.037Z" fill="white"/>
<path fill-rule="evenodd" clip-rule="evenodd" d="M665.13 19.6121V26.2767C664.185 26.8267 663.202 27.427 662.241 28.0136C661.159 28.6734 659.409 29.4011 659.409 30.111L659.431 33.621L663.964 30.9404C664.35 30.7148 668.44 28.4774 668.516 28.1056V17.489C668.102 17.6798 665.306 19.3242 665.13 19.6121H665.13Z" fill="white"/>
<path fill-rule="evenodd" clip-rule="evenodd" d="M644.816 7.1969C645.187 7.62129 646.363 8.22332 646.959 8.60373C648.377 9.50791 647.974 9.38511 651.479 7.23974C652.163 6.82107 653.105 6.22875 653.806 5.8849C654.825 6.315 658.507 8.78194 659.527 9.26116C660.672 8.62543 661.656 7.89432 662.766 7.31514C662.386 7.00556 654.031 2.04083 653.862 2.00199C653.368 1.88832 646.127 6.68512 644.816 7.1969Z" fill="white"/>
<path fill-rule="evenodd" clip-rule="evenodd" d="M638.977 28.1056C639.135 28.4992 639.657 28.6911 639.971 28.8744C640.416 29.1349 640.758 29.3285 641.158 29.565C641.965 30.0414 642.681 30.4823 643.429 30.9261L647.938 33.6204C647.976 29.0515 648.37 29.9494 646.61 28.8847L642.246 26.2761V19.6115C642.08 19.3219 639.419 17.7078 639.006 17.5176L638.976 28.105L638.977 28.1056Z" fill="white"/>
<path fill-rule="evenodd" clip-rule="evenodd" d="M683.285 22.915V31.4085C683.285 31.9082 684.341 31.7038 684.804 31.7038L684.865 25.2448L687.654 29.3899C687.995 29.1346 688.103 28.8564 688.365 28.4594L690.524 25.3631L690.524 30.3478C690.517 31.8711 690.237 31.7043 691.866 31.7043C692.106 31.7043 692.16 31.6512 692.16 31.409V22.9155C692.16 22.4797 691.782 22.6202 690.699 22.6202C690.2 22.6202 687.977 26.422 687.692 26.8087C687.076 26.3466 685.229 22.6202 684.745 22.6202C683.662 22.6202 683.285 22.4797 683.285 22.9155L683.285 22.915Z" fill="white"/>
<path fill-rule="evenodd" clip-rule="evenodd" d="M759.171 22.9156V31.4092C759.171 31.9089 760.228 31.7045 760.69 31.7045L760.751 25.3346C761.101 25.5956 761.161 25.803 761.465 26.2011L764.855 30.6792C765.716 31.7604 765.227 31.7045 766.878 31.7045C767.014 30.8928 766.995 23.6262 766.894 22.6181C765.031 22.6261 765.359 22.2228 765.359 24.8028C765.359 26.12 765.359 27.4371 765.359 28.7543C764.94 28.5132 764.384 27.6336 764.072 27.2235L761.015 23.2378C760.496 22.5147 760.63 22.6203 759.464 22.6203C759.224 22.6203 759.171 22.6735 759.171 22.9156Z" fill="white"/>
<path fill-rule="evenodd" clip-rule="evenodd" d="M744.316 31.6153L745.921 31.649L746.764 29.4311L750.708 29.4031C751.507 29.4037 751.402 31.6444 752.109 31.6444L753.571 31.6022C752.879 30.63 750.005 22.5021 749.424 22.5021C747.812 22.5021 748.364 22.2068 747.317 24.5663L744.316 31.6153ZM747.378 28.0922L750.358 28.1054C750.213 27.5308 749.884 26.8625 749.664 26.3244L748.811 24.5372L747.378 28.0922H747.378Z" fill="white"/>
<path fill-rule="evenodd" clip-rule="evenodd" d="M689.412 19.0823C692.551 19.0823 691.923 19.6861 691.923 16.1916V6.22328L689.119 6.17188L689.119 17.7264C689.117 18.2473 688.943 19.0829 689.412 19.0829L689.412 19.0823Z" fill="white"/>
<path fill-rule="evenodd" clip-rule="evenodd" d="M674.877 25.0383C674.877 28.7362 679.839 27.0209 679.839 29.4028C679.839 30.1767 679.008 30.4046 678.205 30.4046C676.861 30.4046 676.208 29.7563 675.462 29.2251L674.527 30.2881C676.613 32.3466 680.958 32.5214 681.498 29.79C681.849 28.0131 680.798 27.2048 679.403 26.7742C678.402 26.4652 675.828 26.207 676.596 24.6008C676.893 23.9799 677.794 23.8526 678.556 23.9611C679.484 24.093 679.757 24.5968 680.452 24.8024C680.597 24.3666 680.913 24.0348 681.153 23.5932C679.904 23.09 679.2 22.2949 677.401 22.5731C675.972 22.7942 674.877 23.5144 674.877 25.0383Z" fill="white"/>
<path fill-rule="evenodd" clip-rule="evenodd" d="M661.976 10.6176C662.139 10.8947 661.922 10.673 662.279 10.9352C662.772 11.2979 665.069 12.3866 665.187 12.8887V16.6054C665.494 16.5351 668.325 14.8358 668.573 14.5999V10.7062C668.213 10.4783 665.414 8.78186 665.285 8.75215C664.977 8.68133 662.588 10.3795 661.977 10.6182L661.976 10.6176Z" fill="white"/>
<path fill-rule="evenodd" clip-rule="evenodd" d="M638.976 10.8824V14.6865C639.589 14.8921 641.541 16.2104 642.216 16.6331L642.248 12.7113C642.898 12.3303 645.218 11.0446 645.631 10.6465C644.949 10.3957 642.582 8.73416 642.263 8.74616C642.114 8.75187 640.837 9.56409 640.618 9.70632C640.028 10.0884 639.173 10.4694 638.977 10.8824H638.976Z" fill="white"/>
<path fill-rule="evenodd" clip-rule="evenodd" d="M650.476 35.0074C650.728 35.2461 653.566 37.0168 653.788 36.9997C653.924 36.9894 656.877 35.1879 657.132 35.0074V31.2021C656.541 31.2713 654.557 32.8414 653.687 33.0899C653.079 32.7883 650.848 31.2587 650.476 31.2318V35.0079V35.0074Z" fill="white"/>
<path fill-rule="evenodd" clip-rule="evenodd" d="M755.148 31.7042H756.723L756.778 22.6201H755.203L755.148 31.7042Z" fill="white"/>
<path fill-rule="evenodd" clip-rule="evenodd" d="M650.477 10.706C650.907 10.9699 653.549 12.6464 653.716 12.6618C653.932 12.6812 656.843 10.9151 657.073 10.6478C652.559 8.56924 655.382 7.76958 650.476 10.706H650.477Z" fill="white"/>
<path fill-rule="evenodd" clip-rule="evenodd" d="M644.64 24.773L647.968 26.8367V22.8852C647.155 22.5677 645.129 21.0792 644.64 20.9678V24.773Z" fill="white"/>
<path fill-rule="evenodd" clip-rule="evenodd" d="M659.527 22.8858V26.8373L662.023 25.3225C663.153 24.6542 662.797 24.8495 662.786 20.9678C662.28 21.2682 661.715 21.5789 661.214 21.9039C660.748 22.2061 660.001 22.727 659.527 22.8858H659.527Z" fill="white"/>
<path fill-rule="evenodd" clip-rule="evenodd" d="M705.934 31.8214L705.997 28.6947H708.034C710.42 32.3983 709.983 31.8214 712.005 31.8214C711.912 31.5524 709.995 28.7621 709.728 28.5171L710.312 28.1087C711.011 27.7546 711.356 27.3684 711.681 26.5322C712.08 25.5081 711.793 24.3891 711.186 23.686C709.895 22.1895 706.947 22.6185 704.532 22.6185C704.373 23.353 704.431 29.1454 704.414 30.7024C704.397 32.1938 704.362 31.8208 705.934 31.8208L705.934 31.8214ZM705.992 27.0434H708.56C710.659 27.0434 710.878 24.0362 708.327 24.0362H705.992V27.0434Z" fill="white"/>
<path fill-rule="evenodd" clip-rule="evenodd" d="M693.645 31.615L695.25 31.6487L696.095 29.4319L700.037 29.4034C700.817 29.4039 700.773 31.6447 701.437 31.6447L702.899 31.6024L700.916 26.9867C700.675 26.4104 699.192 22.5023 698.752 22.5023C697.208 22.5023 697.67 22.1756 696.652 24.5694L693.644 31.6161L693.645 31.615ZM696.717 28.0959L699.804 28.1051L698.639 25.3891C698.462 24.9676 698.461 24.8105 698.14 24.5078L696.717 28.0959Z" fill="white"/>
<path fill-rule="evenodd" clip-rule="evenodd" d="M735.3 31.7044H736.758L736.82 27.87H741.135L741.145 31.7044C743.134 31.7044 742.713 32.6394 742.713 27.1617C742.713 26.1393 742.71 25.1169 742.713 24.0945C742.717 22.2815 743.002 22.6197 741.194 22.6197L741.132 26.3364H736.816L736.807 22.6197H735.356L735.301 31.7038L735.3 31.7044Z" fill="white"/>
<path fill-rule="evenodd" clip-rule="evenodd" d="M725.546 26.926V27.7519C725.546 29.5963 727.961 33.1925 732.189 31.2219C732.976 30.8552 733.169 30.4931 733.69 30.1406C733.506 29.7545 732.964 29.2067 732.581 29.02C731.468 30.6992 728.447 30.6793 727.48 28.6961C727.052 27.8176 727.041 26.4297 727.472 25.5095C727.845 24.7155 728.653 24.0689 729.81 23.9587C731.188 23.8273 731.88 24.4048 732.611 25.0091C732.979 24.6464 733.283 24.3031 733.574 23.8588C733.019 22.946 731.431 22.4434 729.925 22.4434C727.582 22.4434 725.546 24.5253 725.546 26.926Z" fill="white"/>
<path fill-rule="evenodd" clip-rule="evenodd" d="M713.055 22.9149C713.055 24.3777 712.567 24.0361 715.974 24.0361L715.89 30.5522C715.782 31.8665 715.659 31.7037 717.2 31.7037C717.44 31.7037 717.492 31.6505 717.492 31.4084V24.0361H720.292L720.31 22.6173L714.631 22.6196C714.164 22.619 713.054 22.4128 713.054 22.9149H713.055Z" fill="white"/>
</g>
<defs>
<clipPath id="clip0_0_503">
<rect width="123" height="29" fill="white" transform="translate(160 5)"/>
</clipPath>
<clipPath id="clip1_0_503">
<rect width="179" height="39" fill="white" transform="translate(427.976)"/>
</clipPath>
<clipPath id="clip2_0_503">
<rect width="128" height="35" fill="white" transform="translate(638.976 2)"/>
</clipPath>
</defs>
</svg>
